<svg width="24" height="24" viewBox="0 0 24 24" fill="none" xmlns="http://www.w3.org/2000/svg">
<mask id="mask0_57257_384" style="mask-type:alpha" maskUnits="userSpaceOnUse" x="0" y="0" width="24" height="24">
<rect y="6.10352e-05" width="24" height="24" fill="#D9D9D9"/>
</mask>
<g mask="url(#mask0_57257_384)">
<path d="M12 22.0001C10.6167 22.0001 9.31667 21.7376 8.1 21.2126C6.88333 20.6876 5.825 19.9751 4.925 19.0751C4.025 18.1751 3.3125 17.1167 2.7875 15.9001C2.2625 14.6834 2 13.3834 2 12.0001C2 10.6167 2.2625 9.31673 2.7875 8.10006C3.3125 6.88339 4.025 5.82506 4.925 4.92506C5.825 4.02506 6.88333 3.31256 8.1 2.78756C9.31667 2.26256 10.6167 2.00006 12 2.00006C13.3833 2.00006 14.6833 2.26256 15.9 2.78756C17.1167 3.31256 18.175 4.02506 19.075 4.92506C19.975 5.82506 20.6875 6.88339 21.2125 8.10006C21.7375 9.31673 22 10.6167 22 12.0001C22 13.3834 21.7375 14.6834 21.2125 15.9001C20.6875 17.1167 19.975 18.1751 19.075 19.0751C18.175 19.9751 17.1167 20.6876 15.9 21.2126C14.6833 21.7376 13.3833 22.0001 12 22.0001ZM12 20.0001C14.2333 20.0001 16.125 19.2251 17.675 17.6751C19.225 16.1251 20 14.2334 20 12.0001C20 11.8834 19.9958 11.7626 19.9875 11.6376C19.9792 11.5126 19.975 11.4084 19.975 11.3251C19.8917 11.8084 19.6667 12.2084 19.3 12.5251C18.9333 12.8417 18.5 13.0001 18 13.0001H16C15.45 13.0001 14.9792 12.8042 14.5875 12.4126C14.1958 12.0209 14 11.5501 14 11.0001V10.0001H10V8.00006C10 7.45006 10.1958 6.97923 10.5875 6.58756C10.9792 6.19589 11.45 6.00006 12 6.00006H13C13 5.61673 13.1042 5.27923 13.3125 4.98756C13.5208 4.69589 13.775 4.45839 14.075 4.27506C13.7417 4.19173 13.4042 4.12506 13.0625 4.07506C12.7208 4.02506 12.3667 4.00006 12 4.00006C9.76667 4.00006 7.875 4.77506 6.325 6.32506C4.775 7.87506 4 9.76673 4 12.0001H9C10.1 12.0001 11.0417 12.3917 11.825 13.1751C12.6083 13.9584 13 14.9001 13 16.0001V17.0001H10V19.7501C10.3333 19.8334 10.6625 19.8959 10.9875 19.9376C11.3125 19.9792 11.65 20.0001 12 20.0001Z" fill="#1C1B1F"/>
</g>
</svg>
