<svg width="71" height="42" viewBox="0 0 71 42" fill="none" xmlns="http://www.w3.org/2000/svg">
<mask id="path-1-inside-1_57257_363" fill="white">
<path d="M0 32.0001C0 14.3269 14.3269 6.10352e-05 32 6.10352e-05H39C56.6731 6.10352e-05 71 14.327 71 32.0001V42.0001H0V32.0001Z"/>
</mask>
<path d="M0 32.0001C0 14.3269 14.3269 6.10352e-05 32 6.10352e-05H39C56.6731 6.10352e-05 71 14.327 71 32.0001V42.0001H0V32.0001Z" fill="#3A813F" fill-opacity="0.05"/>
<path d="M-1 32.0001C-1 13.7747 13.7746 -0.999939 32 -0.999939H39C57.2254 -0.999939 72 13.7747 72 32.0001H70C70 14.8792 56.1208 1.00006 39 1.00006H32C14.8792 1.00006 1 14.8792 1 32.0001H-1ZM71 42.0001H0H71ZM-1 42.0001V32.0001C-1 13.7747 13.7746 -0.999939 32 -0.999939V1.00006C14.8792 1.00006 1 14.8792 1 32.0001V42.0001H-1ZM39 -0.999939C57.2254 -0.999939 72 13.7747 72 32.0001V42.0001H70V32.0001C70 14.8792 56.1208 1.00006 39 1.00006V-0.999939Z" fill="#3A813F" mask="url(#path-1-inside-1_57257_363)"/>
<path d="M33.2638 18.1381V27.0001H31.4298V20.2241C31.2991 20.3081 31.1078 20.4247 30.8558 20.5741C30.4918 20.7887 30.2304 20.9521 30.0718 21.0641C29.9504 20.8587 29.7451 20.5181 29.4558 20.0421L29.3718 19.9161C29.3064 19.7947 29.2551 19.7061 29.2178 19.6501C29.5164 19.4354 29.9878 19.1134 30.6318 18.6841C30.9678 18.4601 31.2338 18.2781 31.4298 18.1381H33.2638ZM39.4117 22.4921C40.6344 22.8187 41.2457 23.5747 41.2457 24.7601C41.2457 25.5721 40.9004 26.1974 40.2097 26.6361C39.6404 26.9907 38.9357 27.1681 38.0957 27.1681C37.1157 27.1681 36.3317 26.9347 35.7437 26.4681C35.1931 26.0387 34.9177 25.4647 34.9177 24.7461C34.9177 24.0741 35.1557 23.5141 35.6317 23.0661C35.9864 22.7301 36.3831 22.5341 36.8217 22.4781C35.8044 22.1701 35.2957 21.5214 35.2957 20.5321C35.2957 19.6921 35.6224 19.0341 36.2757 18.5581C36.7984 18.1661 37.4377 17.9701 38.1937 17.9701C39.0524 17.9701 39.7571 18.2314 40.3077 18.7541C40.8211 19.2487 41.0777 19.8741 41.0777 20.6301C41.0777 21.0687 40.9191 21.4607 40.6017 21.8061C40.2937 22.1514 39.8971 22.3801 39.4117 22.4921ZM38.1657 21.8481C38.4831 21.7547 38.7444 21.5821 38.9497 21.3301C39.1551 21.0687 39.2577 20.7934 39.2577 20.5041C39.2577 20.1681 39.1597 19.8974 38.9637 19.6921C38.7771 19.4867 38.5344 19.3841 38.2357 19.3841C37.8904 19.3841 37.6104 19.4914 37.3957 19.7061C37.1904 19.9114 37.0877 20.1867 37.0877 20.5321C37.0877 21.1667 37.4471 21.6054 38.1657 21.8481ZM38.2077 23.1081C37.7877 23.2107 37.4517 23.4021 37.1997 23.6821C36.9477 23.9527 36.8217 24.2654 36.8217 24.6201C36.8217 24.9467 36.9431 25.2174 37.1857 25.4321C37.4284 25.6374 37.7364 25.7401 38.1097 25.7401C38.4644 25.7401 38.7537 25.6421 38.9777 25.4461C39.2111 25.2407 39.3277 24.9794 39.3277 24.6621C39.3277 24.3074 39.2204 23.9854 39.0057 23.6961C38.8004 23.4067 38.5344 23.2107 38.2077 23.1081Z" fill="#3A813F"/>
</svg>
