<svg width="24" height="24" viewBox="0 0 24 24" fill="none" xmlns="http://www.w3.org/2000/svg">
<mask id="mask0_57240_693" style="mask-type:alpha" maskUnits="userSpaceOnUse" x="0" y="0" width="24" height="24">
<rect width="24" height="24" fill="#D9D9D9"/>
</mask>
<g mask="url(#mask0_57240_693)">
<path d="M7.99718 21C7.71384 21 7.47634 20.9042 7.28468 20.7125C7.09301 20.5209 6.99718 20.2834 6.99718 20V14.8L6.42218 15.725C6.27218 15.9584 6.06384 16.1042 5.79718 16.1625C5.53051 16.2209 5.28051 16.175 5.04718 16.025C4.81384 15.875 4.66384 15.6667 4.59718 15.4C4.53051 15.1334 4.57218 14.8834 4.72218 14.65L11.1472 4.35002C11.2472 4.18336 11.3722 4.06669 11.5222 4.00002C11.6722 3.93336 11.8305 3.90002 11.9972 3.90002C12.1638 3.90002 12.3222 3.93336 12.4722 4.00002C12.6222 4.06669 12.7472 4.18336 12.8472 4.35002L19.2722 14.65C19.4222 14.8834 19.4638 15.1334 19.3972 15.4C19.3305 15.6667 19.1805 15.875 18.9472 16.025C18.7138 16.175 18.4638 16.2167 18.1972 16.15C17.9305 16.0834 17.7222 15.9334 17.5722 15.7L16.9972 14.8V20C16.9972 20.2834 16.9013 20.5209 16.7097 20.7125C16.518 20.9042 16.2805 21 15.9972 21H7.99718ZM8.99718 19H10.9972V17C10.9972 16.7167 11.093 16.4792 11.2847 16.2875C11.4763 16.0959 11.7138 16 11.9972 16C12.2805 16 12.518 16.0959 12.7097 16.2875C12.9013 16.4792 12.9972 16.7167 12.9972 17V19H14.9972V11.6L11.9972 6.80002L8.99718 11.6V19ZM11.9972 14C11.7138 14 11.4763 13.9042 11.2847 13.7125C11.093 13.5209 10.9972 13.2834 10.9972 13C10.9972 12.7167 11.093 12.4792 11.2847 12.2875C11.4763 12.0959 11.7138 12 11.9972 12C12.2805 12 12.518 12.0959 12.7097 12.2875C12.9013 12.4792 12.9972 12.7167 12.9972 13C12.9972 13.2834 12.9013 13.5209 12.7097 13.7125C12.518 13.9042 12.2805 14 11.9972 14Z" fill="#090F1F"/>
</g>
</svg>
