<svg width="135" height="31" viewBox="0 0 135 31" fill="none" xmlns="http://www.w3.org/2000/svg">
<g clip-path="url(#clip0_57271_402)">
<path d="M0 6.10352e-05H135V31.0001H0L9.5 16.174L0 6.10352e-05Z" fill="#FFDBDB"/>
<path d="M16.0278 17.0281H16.8198V18.0001H15.9078C15.4998 18.0001 15.1478 17.9201 14.8518 17.7601C14.7798 18.5521 14.5038 19.1841 14.0238 19.6561C13.5838 20.0881 13.0318 20.3041 12.3678 20.3041C11.8878 20.3041 11.4198 20.1841 10.9638 19.9441V19.0441C11.3718 19.2681 11.7798 19.3801 12.1878 19.3801C12.6998 19.3801 13.0998 19.2081 13.3878 18.8641C13.6758 18.5201 13.8198 18.0441 13.8198 17.4361V13.3441L14.8518 12.7921V12.8041L14.8638 12.7921V16.0681C14.9358 16.7081 15.3238 17.0281 16.0278 17.0281ZM22.0289 17.0281H25.1969V18.0001H21.9329C21.5009 18.0001 21.0729 17.9161 20.6489 17.7481C20.2249 17.9161 19.7929 18.0001 19.3529 18.0001H16.1009V17.0281H19.2689H19.4369C18.8609 16.5561 18.2689 15.8641 17.6609 14.9521V14.4241C18.0449 13.8721 18.5009 13.4361 19.0289 13.1161C19.5649 12.7961 20.1009 12.6361 20.6369 12.6361C21.1729 12.6361 21.7089 12.8001 22.2449 13.1281C22.7809 13.4481 23.2449 13.8881 23.6369 14.4481V14.9521C23.0289 15.8641 22.4329 16.5561 21.8489 17.0281H22.0289ZM18.6209 14.7001C19.3569 15.7081 20.0329 16.3721 20.6489 16.6921C21.2649 16.3641 21.9409 15.6961 22.6769 14.6881C22.0769 13.9601 21.3969 13.5921 20.6369 13.5841C19.8769 13.5841 19.2049 13.9561 18.6209 14.7001ZM24.4798 18.0001V17.0281H25.5598C26.3358 17.0281 26.7238 16.6281 26.7238 15.8281V14.1481L27.7558 13.5961V15.8281C27.7558 16.6281 28.1478 17.0281 28.9318 17.0281H29.4838C30.2678 17.0281 30.6598 16.6281 30.6598 15.8281V13.7401L31.6918 13.2001V15.8281C31.6918 16.6281 32.0798 17.0281 32.8558 17.0281H33.4198C34.2038 17.0281 34.5958 16.6281 34.5958 15.8281V13.3441L35.6278 12.7921V15.8641C35.6278 16.5441 35.4238 17.0761 35.0158 17.4601C34.6558 17.8121 34.1758 17.9921 33.5758 18.0001H32.7478C32.0438 18.0001 31.5198 17.7641 31.1758 17.2921C30.8318 17.7561 30.3198 17.9921 29.6398 18.0001H28.8118C28.1238 18.0001 27.5998 17.7641 27.2398 17.2921C26.8958 17.7641 26.3718 18.0001 25.6678 18.0001H24.4798ZM47.9837 17.0281H48.7757V18.0001H47.8637C47.4317 18.0001 47.0437 17.9041 46.6997 17.7121C46.5877 18.5361 46.2157 19.1841 45.5837 19.6561C45.0237 20.0721 44.3317 20.2801 43.5077 20.2801C42.4357 20.2801 41.6077 19.9201 41.0237 19.2001C40.5757 18.6401 40.3517 17.9721 40.3517 17.1961C40.3517 16.5161 40.5157 15.9361 40.8437 15.4561L41.8757 15.2281C41.5077 15.7961 41.3237 16.4161 41.3237 17.0881C41.3237 17.7521 41.5357 18.2961 41.9597 18.7201C42.3517 19.1121 42.8677 19.3081 43.5077 19.3081C44.2357 19.3081 44.7957 19.0921 45.1877 18.6601C45.5237 18.2921 45.6917 17.8201 45.6917 17.2441V10.8121L46.7357 10.2601V15.8281C46.7357 16.6281 47.1517 17.0281 47.9837 17.0281ZM48.058 18.0001V17.0281H48.85C49.634 17.0281 50.026 16.6281 50.026 15.8281V13.3441L51.058 12.7921V15.8641C51.058 16.5441 50.854 17.0801 50.446 17.4721C50.07 17.8241 49.578 18.0001 48.97 18.0001H48.058ZM49.99 20.3881C49.598 20.3881 49.402 20.1881 49.402 19.7881C49.402 19.3961 49.598 19.2001 49.99 19.2001C50.374 19.2001 50.566 19.3961 50.566 19.7881C50.566 20.1881 50.374 20.3881 49.99 20.3881ZM55.3008 18.0001C54.6048 18.0001 54.0688 17.7761 53.6928 17.3281C53.3728 16.9441 53.2128 16.4561 53.2128 15.8641V10.8121L54.2448 10.2601V15.8281C54.2448 16.6281 54.6368 17.0281 55.4208 17.0281H56.2128V18.0001H55.3008ZM58.4637 11.4241C58.0717 11.4241 57.8757 11.2241 57.8757 10.8241C57.8757 10.4321 58.0717 10.2361 58.4637 10.2361C58.8477 10.2361 59.0397 10.4321 59.0397 10.8241C59.0397 11.2241 58.8477 11.4241 58.4637 11.4241ZM59.9877 11.4241C59.5957 11.4241 59.3997 11.2241 59.3997 10.8241C59.3997 10.4321 59.5957 10.2361 59.9877 10.2361C60.3717 10.2361 60.5637 10.4321 60.5637 10.8241C60.5637 11.2241 60.3717 11.4241 59.9877 11.4241ZM60.7317 17.0281H62.9637V18.0001H60.0357C59.7237 18.0001 59.4517 17.9721 59.2197 17.9161C58.9957 17.9721 58.7237 18.0001 58.4037 18.0001H55.4877V17.0281H57.7197C57.2237 16.4601 56.9757 15.8321 56.9757 15.1441C56.9757 14.3601 57.1957 13.7361 57.6357 13.2721C58.0357 12.8481 58.5637 12.6361 59.2197 12.6361C59.9717 12.6361 60.5517 12.9081 60.9597 13.4521C61.3037 13.9001 61.4757 14.4641 61.4757 15.1441C61.4757 15.8321 61.2277 16.4601 60.7317 17.0281ZM59.2317 16.9201C59.5997 16.7921 59.8997 16.5601 60.1317 16.2241C60.3637 15.8801 60.4797 15.5041 60.4797 15.0961C60.4797 14.6321 60.3637 14.2681 60.1317 14.0041C59.9077 13.7321 59.6037 13.5961 59.2197 13.5961C58.8357 13.5961 58.5277 13.7321 58.2957 14.0041C58.0717 14.2761 57.9597 14.6401 57.9597 15.0961C57.9597 15.4961 58.0797 15.8681 58.3197 16.2121C58.5597 16.5561 58.8637 16.7921 59.2317 16.9201ZM64.2174 14.7481C64.2174 14.0521 64.4254 13.5121 64.8414 13.1281C65.2094 12.8001 65.6894 12.6361 66.2814 12.6361C67.0414 12.6361 67.6254 12.9161 68.0334 13.4761C68.3854 13.9481 68.5614 14.5641 68.5614 15.3241C68.5614 16.1881 68.3374 16.8641 67.8894 17.3521C67.4974 17.7841 66.9854 18.0001 66.3534 18.0001C65.6334 18.0001 65.0854 17.8001 64.7094 17.4001C64.3254 17.8001 63.8094 18.0001 63.1614 18.0001H62.2494V17.0281H63.0414C63.8254 17.0281 64.2174 16.6281 64.2174 15.8281V14.7481ZM65.2494 15.9121C65.2494 16.6561 65.6134 17.0281 66.3414 17.0281C66.7174 17.0281 67.0094 16.8761 67.2174 16.5721C67.4334 16.2681 67.5414 15.8441 67.5414 15.3001C67.5414 14.7641 67.4294 14.3481 67.2054 14.0521C66.9814 13.7481 66.6734 13.5961 66.2814 13.5961C65.5934 13.5961 65.2494 13.9961 65.2494 14.7961V15.9121ZM74.3896 11.2201C73.9976 11.2201 73.8016 11.0201 73.8016 10.6201C73.8016 10.2281 73.9976 10.0321 74.3896 10.0321C74.7736 10.0321 74.9656 10.2281 74.9656 10.6201C74.9656 11.0201 74.7736 11.2201 74.3896 11.2201ZM75.9136 11.2201C75.5216 11.2201 75.3256 11.0201 75.3256 10.6201C75.3256 10.2281 75.5216 10.0321 75.9136 10.0321C76.2976 10.0321 76.4896 10.2281 76.4896 10.6201C76.4896 11.0201 76.2976 11.2201 75.9136 11.2201ZM78.1456 17.0281H78.9376V18.0001H78.0256C77.2016 18.0001 76.6096 17.6961 76.2496 17.0881C75.8656 17.4561 75.3896 17.6401 74.8216 17.6401C74.1176 17.6401 73.5576 17.3761 73.1416 16.8481C72.7976 16.4001 72.6256 15.8521 72.6256 15.2041C72.6256 14.4281 72.8616 13.8041 73.3336 13.3321C73.7336 12.9241 74.2216 12.7201 74.7976 12.7201C75.2376 12.7201 75.6176 12.8321 75.9376 13.0561V12.5401L76.9816 11.9881V15.8281C76.9816 16.6281 77.3696 17.0281 78.1456 17.0281ZM75.9376 14.1721C75.6416 13.8441 75.2776 13.6801 74.8456 13.6801C74.4936 13.6801 74.2056 13.8241 73.9816 14.1121C73.7576 14.3921 73.6456 14.7601 73.6456 15.2161C73.6456 15.6801 73.7576 16.0521 73.9816 16.3321C74.2056 16.6121 74.4976 16.7521 74.8576 16.7521C75.3056 16.7521 75.6736 16.5681 75.9616 16.2001C75.9456 16.0561 75.9376 15.9441 75.9376 15.8641V14.1721ZM85.95 17.0281H86.754V18.0001H85.842C85.178 18.0001 84.654 17.7881 84.27 17.3641C83.862 17.9481 83.266 18.2401 82.482 18.2401C81.698 18.2401 81.106 17.9521 80.706 17.3761C80.33 17.7921 79.806 18.0001 79.134 18.0001H78.222V17.0281H79.014C79.798 17.0281 80.19 16.6281 80.19 15.8281V15.4321C80.19 14.5041 80.418 13.7921 80.874 13.2961C81.274 12.8561 81.81 12.6361 82.482 12.6361C83.25 12.6361 83.842 12.9201 84.258 13.4881C84.61 13.9761 84.786 14.6241 84.786 15.4321V15.8281C84.786 16.6281 85.174 17.0281 85.95 17.0281ZM82.482 17.2681C82.874 17.2681 83.182 17.1041 83.406 16.7761C83.638 16.4481 83.754 15.9961 83.754 15.4201C83.754 14.2041 83.33 13.5961 82.482 13.5961C81.642 13.5961 81.222 14.2041 81.222 15.4201C81.222 16.6521 81.642 17.2681 82.482 17.2681ZM90.2144 17.0281H91.0064V18.0001H90.0944C89.4304 18.0001 88.9064 17.7881 88.5224 17.3641C88.1384 17.7881 87.6144 18.0001 86.9504 18.0001H86.0384V17.0281H86.8304C87.6144 17.0281 88.0064 16.6281 88.0064 15.8281V13.3441L89.0384 12.7921V15.8281C89.0384 16.6281 89.4304 17.0281 90.2144 17.0281ZM87.3464 19.2001C87.7304 19.2001 87.9224 19.4001 87.9224 19.8001C87.9224 20.1921 87.7304 20.3881 87.3464 20.3881C86.9544 20.3881 86.7584 20.1921 86.7584 19.8001C86.7584 19.4001 86.9544 19.2001 87.3464 19.2001ZM88.8704 19.2001C89.2544 19.2001 89.4464 19.4001 89.4464 19.8001C89.4464 20.1921 89.2544 20.3881 88.8704 20.3881C88.4784 20.3881 88.2824 20.1921 88.2824 19.8001C88.2824 19.4001 88.4784 19.2001 88.8704 19.2001ZM93.4126 11.4241C93.0206 11.4241 92.8246 11.2241 92.8246 10.8241C92.8246 10.4321 93.0206 10.2361 93.4126 10.2361C93.7966 10.2361 93.9886 10.4321 93.9886 10.8241C93.9886 11.2241 93.7966 11.4241 93.4126 11.4241ZM94.9366 11.4241C94.5446 11.4241 94.3486 11.2241 94.3486 10.8241C94.3486 10.4321 94.5446 10.2361 94.9366 10.2361C95.3206 10.2361 95.5126 10.4321 95.5126 10.8241C95.5126 11.2241 95.3206 11.4241 94.9366 11.4241ZM90.2806 18.0001V17.0281H92.4406C92.0726 16.6201 91.8886 16.0521 91.8886 15.3241C91.8886 14.4521 92.1166 13.7721 92.5726 13.2841C92.9726 12.8521 93.5046 12.6361 94.1686 12.6361C94.8486 12.6361 95.3766 12.8481 95.7526 13.2721C96.0726 13.6481 96.2326 14.1401 96.2326 14.7481V15.8881C96.2246 16.5521 96.0286 17.0761 95.6446 17.4601C95.2686 17.8201 94.7686 18.0001 94.1446 18.0001H90.2806ZM95.2006 14.7961C95.2006 13.9961 94.8566 13.5961 94.1686 13.5961C93.7766 13.5961 93.4686 13.7481 93.2446 14.0521C93.0206 14.3481 92.9086 14.7641 92.9086 15.3001C92.9086 15.8281 93.0166 16.2481 93.2326 16.5601C93.4486 16.8721 93.7366 17.0281 94.0966 17.0281C94.8326 17.0281 95.2006 16.6441 95.2006 15.8761V14.7961ZM108.464 17.0281H109.256V18.0001H108.344C107.912 18.0001 107.524 17.9041 107.18 17.7121C107.068 18.5361 106.696 19.1841 106.064 19.6561C105.504 20.0721 104.812 20.2801 103.988 20.2801C102.916 20.2801 102.088 19.9201 101.504 19.2001C101.056 18.6401 100.832 17.9721 100.832 17.1961C100.832 16.5161 100.996 15.9361 101.324 15.4561L102.356 15.2281C101.988 15.7961 101.804 16.4161 101.804 17.0881C101.804 17.7521 102.016 18.2961 102.44 18.7201C102.832 19.1121 103.348 19.3081 103.988 19.3081C104.716 19.3081 105.276 19.0921 105.668 18.6601C106.004 18.2921 106.172 17.8201 106.172 17.2441V10.8121L107.216 10.2601V15.8281C107.216 16.6281 107.632 17.0281 108.464 17.0281ZM116.986 11.3401C116.594 11.3401 116.398 11.1401 116.398 10.7401C116.398 10.3481 116.594 10.1521 116.986 10.1521C117.37 10.1521 117.562 10.3481 117.562 10.7401C117.562 11.1401 117.37 11.3401 116.986 11.3401ZM120.826 17.0281H121.618V18.0001H120.706C120.034 18.0001 119.51 17.7921 119.134 17.3761C118.758 17.7921 118.234 18.0001 117.562 18.0001H112.594C111.93 18.0001 111.406 17.7881 111.022 17.3641C110.638 17.7881 110.114 18.0001 109.45 18.0001H108.538V17.0281H109.33C110.114 17.0281 110.506 16.6281 110.506 15.8281V14.1481L111.538 13.5961V15.8281C111.538 16.5001 111.798 16.8881 112.318 16.9921C112.638 15.7841 113.166 14.7761 113.902 13.9681C114.726 13.0801 115.686 12.6361 116.782 12.6361C117.694 12.6361 118.422 12.9521 118.966 13.5841C119.422 14.1201 119.65 14.7801 119.65 15.5641V15.8521C119.65 16.6361 120.042 17.0281 120.826 17.0281ZM117.502 17.0281C118.246 17.0281 118.618 16.6121 118.618 15.7801V15.5641C118.618 14.9401 118.426 14.4441 118.042 14.0761C117.706 13.7561 117.29 13.5961 116.794 13.5961C115.946 13.5961 115.182 13.9881 114.502 14.7721C113.982 15.3721 113.582 16.1241 113.302 17.0281H117.502ZM124.814 11.4121C124.422 11.4121 124.226 11.2121 124.226 10.8121C124.226 10.4201 124.422 10.2241 124.814 10.2241C125.198 10.2241 125.39 10.4201 125.39 10.8121C125.39 11.2121 125.198 11.4121 124.814 11.4121ZM120.902 18.0001V17.0281H123.062C122.694 16.6201 122.51 16.0521 122.51 15.3241C122.51 14.4521 122.738 13.7721 123.194 13.2841C123.594 12.8521 124.126 12.6361 124.79 12.6361C125.47 12.6361 125.998 12.8481 126.374 13.2721C126.694 13.6481 126.854 14.1401 126.854 14.7481V15.8881C126.846 16.5521 126.65 17.0761 126.266 17.4601C125.89 17.8201 125.39 18.0001 124.766 18.0001H120.902ZM125.822 14.7961C125.822 13.9961 125.478 13.5961 124.79 13.5961C124.398 13.5961 124.09 13.7481 123.866 14.0521C123.642 14.3481 123.53 14.7641 123.53 15.3001C123.53 15.8281 123.638 16.2481 123.854 16.5601C124.07 16.8721 124.358 17.0281 124.718 17.0281C125.454 17.0281 125.822 16.6441 125.822 15.8761V14.7961ZM128.257 10.0921L128.533 9.57606H128.857C128.777 9.43206 128.737 9.28406 128.737 9.13206C128.737 8.89206 128.825 8.68806 129.001 8.52006C129.177 8.34406 129.385 8.25606 129.625 8.25606C129.825 8.25606 130.017 8.32006 130.201 8.44806V8.97606C130.025 8.84006 129.857 8.77206 129.697 8.77206C129.401 8.77206 129.253 8.90406 129.253 9.16806C129.253 9.30406 129.309 9.44006 129.421 9.57606H130.513L130.237 10.0921H128.257ZM128.893 18.0001V11.2921L129.925 10.7401V18.0001H128.893Z" fill="#FF4144"/>
</g>
<defs>
<clipPath id="clip0_57271_402">
<path d="M0 6.10352e-05H131C133.209 6.10352e-05 135 1.79092 135 4.00006V31.0001H0V6.10352e-05Z" fill="white"/>
</clipPath>
</defs>
</svg>
