<svg width="100" height="31" viewBox="0 0 100 31" fill="none" xmlns="http://www.w3.org/2000/svg">
<g clip-path="url(#clip0_57271_285)">
<path d="M0 0.00012207H100V31.0001H0L7.03704 16.174L0 0.00012207Z" fill="#FFDBDB"/>
<path d="M26.0794 12.4201C25.6874 12.4201 25.4914 12.2201 25.4914 11.8201C25.4914 11.4281 25.6874 11.2321 26.0794 11.2321C26.4634 11.2321 26.6554 11.4281 26.6554 11.8201C26.6554 12.2201 26.4634 12.4201 26.0794 12.4201ZM27.6034 12.4201C27.2114 12.4201 27.0154 12.2201 27.0154 11.8201C27.0154 11.4281 27.2114 11.2321 27.6034 11.2321C27.9874 11.2321 28.1794 11.4281 28.1794 11.8201C28.1794 12.2201 27.9874 12.4201 27.6034 12.4201ZM24.8674 18.0001C24.2194 18.0001 23.7114 17.7841 23.3434 17.3521C23.0234 16.9761 22.8634 16.4841 22.8634 15.8761V14.4241L23.8954 13.8721V15.7801C23.8954 16.6121 24.2834 17.0281 25.0594 17.0281H29.0434C29.8194 17.0281 30.2074 16.6121 30.2074 15.7801V13.3441L31.2394 12.7921V15.8761C31.2394 16.5721 31.0274 17.1121 30.6034 17.4961C30.2274 17.8321 29.7434 18.0001 29.1514 18.0001H24.8674ZM33.1642 18.0001V10.8121L34.1962 10.2601V18.0001H33.1642ZM35.3917 18.0001L35.8957 17.0281H38.0317C38.3517 17.0281 38.5757 16.9481 38.7037 16.7881C38.8397 16.6281 38.9077 16.3521 38.9077 15.9601C38.9077 14.8961 38.4157 14.0961 37.4317 13.5601L37.9597 12.6721C39.2157 13.4081 39.8717 14.4241 39.9277 15.7201C39.9437 16.1841 40.0477 16.5201 40.2397 16.7281C40.4397 16.9281 40.7557 17.0281 41.1877 17.0281H41.8957V18.0001H41.1037C40.4397 18.0001 39.9197 17.7881 39.5437 17.3641C39.2797 17.7881 38.8357 18.0001 38.2117 18.0001H35.3917ZM42.6212 14.4361C42.8212 13.7001 43.2012 13.1361 43.7612 12.7441C44.2172 12.4321 44.7332 12.2761 45.3092 12.2761C46.1572 12.2761 46.8572 12.5641 47.4092 13.1401C47.9292 13.6841 48.1892 14.3841 48.1892 15.2401V15.8761C48.1892 16.5721 47.9732 17.1121 47.5412 17.4961C47.1652 17.8321 46.6772 18.0001 46.0772 18.0001H44.7812C44.5092 18.0001 44.2532 17.9601 44.0132 17.8801C43.7652 17.9601 43.5092 18.0001 43.2452 18.0001H41.1812V17.0281H42.7292C42.4252 16.6201 42.2732 16.1561 42.2732 15.6361C42.2732 15.1641 42.3892 14.7641 42.6212 14.4361ZM47.1452 15.7801V15.2401C47.1452 14.5761 46.9332 14.0601 46.5092 13.6921C46.1652 13.3881 45.7532 13.2361 45.2732 13.2361C44.7212 13.2361 44.2892 13.4161 43.9772 13.7761H44.0132C44.5412 13.7761 44.9612 13.9481 45.2732 14.2921C45.5932 14.6281 45.7532 15.0761 45.7532 15.6361C45.7532 16.1721 45.5972 16.6361 45.2852 17.0281H46.0412C46.4332 17.0281 46.7132 16.9321 46.8812 16.7401C47.0572 16.5401 47.1452 16.2201 47.1452 15.7801ZM44.0132 16.9201C44.6692 16.6961 44.9972 16.2481 44.9972 15.5761C44.9972 15.2401 44.9052 14.9721 44.7212 14.7721C44.5452 14.5641 44.3092 14.4601 44.0132 14.4601C43.7172 14.4601 43.4772 14.5641 43.2932 14.7721C43.1172 14.9721 43.0292 15.2401 43.0292 15.5761C43.0292 16.2481 43.3572 16.6961 44.0132 16.9201ZM52.1975 18.0001C51.5015 18.0001 50.9655 17.7761 50.5895 17.3281C50.2695 16.9441 50.1095 16.4561 50.1095 15.8641V10.8121L51.1415 10.2601V15.8281C51.1415 16.6281 51.5335 17.0281 52.3175 17.0281H53.1095V18.0001H52.1975ZM58.9844 10.2361C58.6324 10.2361 58.4564 10.0561 58.4564 9.69612C58.4564 9.34412 58.6324 9.16812 58.9844 9.16812C59.3364 9.16812 59.5124 9.34412 59.5124 9.69612C59.5124 10.0561 59.3364 10.2361 58.9844 10.2361ZM58.2284 11.6641C57.8364 11.6641 57.6404 11.4641 57.6404 11.0641C57.6404 10.6721 57.8364 10.4761 58.2284 10.4761C58.6124 10.4761 58.8044 10.6721 58.8044 11.0641C58.8044 11.4641 58.6124 11.6641 58.2284 11.6641ZM59.7524 11.6641C59.3604 11.6641 59.1644 11.4641 59.1644 11.0641C59.1644 10.6721 59.3604 10.4761 59.7524 10.4761C60.1364 10.4761 60.3284 10.6721 60.3284 11.0641C60.3284 11.4641 60.1364 11.6641 59.7524 11.6641ZM52.3844 18.0001V17.0281H53.4644C54.2404 17.0281 54.6284 16.6281 54.6284 15.8281V14.1481L55.6604 13.5961V15.8281C55.6604 16.6281 56.0524 17.0281 56.8364 17.0281H57.3884C58.1724 17.0281 58.5644 16.6281 58.5644 15.8281V13.7401L59.5964 13.2001V15.8281C59.5964 16.6281 59.9844 17.0281 60.7604 17.0281H61.3244C62.1084 17.0281 62.5004 16.6281 62.5004 15.8281V13.3441L63.5324 12.7921V15.7201C63.5324 16.5921 63.9484 17.0281 64.7804 17.0281H65.7764V18.0001H64.6964C63.9764 18.0001 63.4284 17.7561 63.0524 17.2681C62.7164 17.7481 62.1924 17.9921 61.4804 18.0001H60.6524C59.9484 18.0001 59.4244 17.7641 59.0804 17.2921C58.7364 17.7561 58.2244 17.9921 57.5444 18.0001H56.7164C56.0284 18.0001 55.5044 17.7641 55.1444 17.2921C54.8004 17.7641 54.2764 18.0001 53.5724 18.0001H52.3844ZM67.0203 14.7481C67.0203 14.0521 67.2283 13.5121 67.6443 13.1281C68.0123 12.8001 68.4923 12.6361 69.0843 12.6361C69.8443 12.6361 70.4283 12.9161 70.8363 13.4761C71.1883 13.9481 71.3643 14.5641 71.3643 15.3241C71.3643 16.1881 71.1403 16.8641 70.6923 17.3521C70.3003 17.7841 69.7883 18.0001 69.1563 18.0001C68.4363 18.0001 67.8883 17.8001 67.5123 17.4001C67.1283 17.8001 66.6123 18.0001 65.9643 18.0001H65.0523V17.0281H65.8443C66.6283 17.0281 67.0203 16.6281 67.0203 15.8281V14.7481ZM68.0523 15.9121C68.0523 16.6561 68.4163 17.0281 69.1443 17.0281C69.5203 17.0281 69.8123 16.8761 70.0203 16.5721C70.2363 16.2681 70.3443 15.8441 70.3443 15.3001C70.3443 14.7641 70.2323 14.3481 70.0083 14.0521C69.7843 13.7481 69.4763 13.5961 69.0843 13.5961C68.3963 13.5961 68.0523 13.9961 68.0523 14.7961V15.9121ZM83.0726 18.0001C82.9926 18.7041 82.6086 19.2681 81.9206 19.6921C81.2806 20.0841 80.4646 20.2801 79.4726 20.2801C78.2086 20.2801 77.2566 19.9121 76.6166 19.1761C76.1446 18.6321 75.9086 17.9601 75.9086 17.1601C75.9086 16.4881 76.0766 15.9121 76.4126 15.4321L77.4086 15.2161C77.0486 15.7841 76.8686 16.3961 76.8686 17.0521C76.8686 17.7641 77.1006 18.3241 77.5646 18.7321C78.0206 19.1401 78.6566 19.3441 79.4726 19.3441C80.1606 19.3441 80.7286 19.2241 81.1766 18.9841C81.6246 18.7441 81.8966 18.4161 81.9926 18.0001H80.7926L81.2966 17.0281H83.1086V18.0001H83.0726ZM86.5701 17.0281H87.3621V18.0001H86.4501C85.7621 18.0001 85.2301 17.7801 84.8541 17.3401C84.4541 17.7801 83.9021 18.0001 83.1981 18.0001H82.4781V17.0281H83.1141C83.9461 17.0281 84.3621 16.5921 84.3621 15.7201V10.8121L85.4061 10.2601V15.7321C85.4061 16.1961 85.4941 16.5281 85.6701 16.7281C85.8541 16.9281 86.1541 17.0281 86.5701 17.0281ZM93.1063 17.0281V18.0001H86.6383V17.0281H88.7143C88.3223 16.5241 88.1263 15.9041 88.1263 15.1681C88.1263 14.3521 88.4063 13.7041 88.9663 13.2241C89.4223 12.8401 89.9503 12.6441 90.5503 12.6361C91.3983 12.6361 92.0583 12.9761 92.5303 13.6561V14.6281C92.0183 13.9401 91.3983 13.5961 90.6703 13.5961C90.2143 13.5961 89.8463 13.7441 89.5663 14.0401C89.2943 14.3281 89.1583 14.7161 89.1583 15.2041C89.1583 15.7561 89.3223 16.2001 89.6503 16.5361C89.9863 16.8641 90.4303 17.0281 90.9823 17.0281H93.1063ZM94.1454 10.0921L94.4214 9.57612H94.7454C94.6654 9.43212 94.6254 9.28412 94.6254 9.13212C94.6254 8.89212 94.7134 8.68812 94.8894 8.52012C95.0654 8.34412 95.2734 8.25612 95.5134 8.25612C95.7134 8.25612 95.9054 8.32012 96.0894 8.44812V8.97612C95.9134 8.84012 95.7454 8.77212 95.5854 8.77212C95.2894 8.77212 95.1414 8.90412 95.1414 9.16812C95.1414 9.30412 95.1974 9.44012 95.3094 9.57612H96.4014L96.1254 10.0921H94.1454ZM94.7814 18.0001V11.2921L95.8134 10.7401V18.0001H94.7814Z" fill="#FF4144"/>
</g>
<defs>
<clipPath id="clip0_57271_285">
<path d="M0 0.00012207H96C98.2091 0.00012207 100 1.79098 100 4.00012V31.0001H0V0.00012207Z" fill="white"/>
</clipPath>
</defs>
</svg>
