<svg width="40" height="40" viewBox="0 0 40 40" fill="none" xmlns="http://www.w3.org/2000/svg">
<rect width="40" height="40" rx="20" fill="white"/>
<path d="M27 23C27 22.4667 26.8417 21.9333 26.525 21.4C26.2083 20.8667 25.75 20.4833 25.15 20.25L17.35 17.15L17 17.05C16.8833 17.0167 16.75 17 16.6 17H15V15.525C15 15.1917 15.075 14.8833 15.225 14.6C15.375 14.3167 15.5833 14.0833 15.85 13.9L20.85 10.325C21.0333 10.1917 21.221 10.0957 21.413 10.037C21.605 9.97833 21.8007 9.94933 22 9.94999C22.1993 9.95066 22.3993 9.97999 22.6 10.038C22.8007 10.096 22.984 10.1917 23.15 10.325L28.15 13.9C28.4167 14.0833 28.625 14.3167 28.775 14.6C28.925 14.8833 29 15.1917 29 15.525V23H27ZM23 16C23.1333 16 23.25 15.95 23.35 15.85C23.45 15.75 23.5 15.6333 23.5 15.5C23.5 15.3667 23.45 15.25 23.35 15.15C23.25 15.05 23.1333 15 23 15C22.8667 15 22.75 15.05 22.65 15.15C22.55 15.25 22.5 15.3667 22.5 15.5C22.5 15.6333 22.55 15.75 22.65 15.85C22.75 15.95 22.8667 16 23 16ZM21 16C21.1333 16 21.25 15.95 21.35 15.85C21.45 15.75 21.5 15.6333 21.5 15.5C21.5 15.3667 21.45 15.25 21.35 15.15C21.25 15.05 21.1333 15 21 15C20.8667 15 20.75 15.05 20.65 15.15C20.55 15.25 20.5 15.3667 20.5 15.5C20.5 15.6333 20.55 15.75 20.65 15.85C20.75 15.95 20.8667 16 21 16ZM23 18C23.1333 18 23.25 17.95 23.35 17.85C23.45 17.75 23.5 17.6333 23.5 17.5C23.5 17.3667 23.45 17.25 23.35 17.15C23.25 17.05 23.1333 17 23 17C22.8667 17 22.75 17.05 22.65 17.15C22.55 17.25 22.5 17.3667 22.5 17.5C22.5 17.6333 22.55 17.75 22.65 17.85C22.75 17.95 22.8667 18 23 18ZM21 18C21.1333 18 21.25 17.95 21.35 17.85C21.45 17.75 21.5 17.6333 21.5 17.5C21.5 17.3667 21.45 17.25 21.35 17.15C21.25 17.05 21.1333 17 21 17C20.8667 17 20.75 17.05 20.65 17.15C20.55 17.25 20.5 17.3667 20.5 17.5C20.5 17.6333 20.55 17.75 20.65 17.85C20.75 17.95 20.8667 18 21 18ZM21.375 29.825C21.5583 29.875 21.771 29.896 22.013 29.888C22.255 29.88 22.459 29.8423 22.625 29.775L30 27C30 26.4333 29.8 25.9583 29.4 25.575C29 25.1917 28.5333 25 28 25H21.15C21.1 25 21.0417 24.996 20.975 24.988C20.9083 24.98 20.8583 24.9673 20.825 24.95L19.35 24.425C19.2167 24.375 19.125 24.2917 19.075 24.175C19.025 24.0583 19.0167 23.9333 19.05 23.8C19.0833 23.6833 19.1667 23.5917 19.3 23.525C19.4333 23.4583 19.5667 23.45 19.7 23.5L20.825 23.925C20.8917 23.9583 20.946 23.9793 20.988 23.988C21.03 23.9967 21.0923 24.0007 21.175 24H23.8C24.1167 24 24.3957 23.8917 24.637 23.675C24.8783 23.4583 24.9993 23.175 25 22.825C25 22.5917 24.929 22.3667 24.787 22.15C24.645 21.9333 24.4577 21.7833 24.225 21.7L17.3 19.125C17.1833 19.0917 17.0667 19.0623 16.95 19.037C16.8333 19.0117 16.7167 18.9993 16.6 19H15V28.025L21.375 29.825ZM9 28C9 28.55 9.196 29.021 9.588 29.413C9.98 29.805 10.4507 30.0007 11 30C11.5493 29.9993 12.0203 29.8037 12.413 29.413C12.8057 29.0223 13.0013 28.5513 13 28V21C13 20.45 12.8043 19.9793 12.413 19.588C12.0217 19.1967 11.5507 19.0007 11 19C10.4493 18.9993 9.97867 19.1953 9.588 19.588C9.19733 19.9807 9.00133 20.4513 9 21V28Z" fill="#F95B1C"/>
</svg>
