<svg width="24" height="24" viewBox="0 0 24 24" fill="none" xmlns="http://www.w3.org/2000/svg">
<mask id="mask0_57257_144" style="mask-type:alpha" maskUnits="userSpaceOnUse" x="0" y="0" width="24" height="24">
<rect y="6.10352e-05" width="24" height="24" fill="#D9D9D9"/>
</mask>
<g mask="url(#mask0_57257_144)">
<path d="M16 5.00006V12.0001L17.7 13.7001C17.8 13.8001 17.875 13.9126 17.925 14.0376C17.975 14.1626 18 14.2917 18 14.4251V15.0001C18 15.2834 17.9042 15.5209 17.7125 15.7126C17.5208 15.9042 17.2833 16.0001 17 16.0001H13V21.8501C13 22.1334 12.9042 22.3709 12.7125 22.5626C12.5208 22.7542 12.2833 22.8501 12 22.8501C11.7167 22.8501 11.4792 22.7542 11.2875 22.5626C11.0958 22.3709 11 22.1334 11 21.8501V16.0001H7C6.71667 16.0001 6.47917 15.9042 6.2875 15.7126C6.09583 15.5209 6 15.2834 6 15.0001V14.4251C6 14.2917 6.025 14.1626 6.075 14.0376C6.125 13.9126 6.2 13.8001 6.3 13.7001L8 12.0001V5.00006C7.71667 5.00006 7.47917 4.90423 7.2875 4.71256C7.09583 4.52089 7 4.28339 7 4.00006C7 3.71673 7.09583 3.47923 7.2875 3.28756C7.47917 3.09589 7.71667 3.00006 8 3.00006H16C16.2833 3.00006 16.5208 3.09589 16.7125 3.28756C16.9042 3.47923 17 3.71673 17 4.00006C17 4.28339 16.9042 4.52089 16.7125 4.71256C16.5208 4.90423 16.2833 5.00006 16 5.00006ZM8.85 14.0001H15.15L14 12.8501V5.00006H10V12.8501L8.85 14.0001Z" fill="#090F1F"/>
</g>
</svg>
