<svg width="24" height="24" viewBox="0 0 24 24" fill="none" xmlns="http://www.w3.org/2000/svg">
<mask id="mask0_57257_139" style="mask-type:alpha" maskUnits="userSpaceOnUse" x="0" y="0" width="24" height="24">
<rect y="6.10352e-05" width="24" height="24" fill="#D9D9D9"/>
</mask>
<g mask="url(#mask0_57257_139)">
<path d="M7.975 18.2501C7.80833 17.7667 7.65417 17.2751 7.5125 16.7751C7.37083 16.2751 7.25833 15.7751 7.175 15.2751L6 16.0751V19.0501L7.975 18.2501ZM11.65 4.87507C10.85 5.72507 10.2083 6.84591 9.725 8.23757C9.24167 9.62924 9 11.0917 9 12.6251C9 13.6251 9.09167 14.6042 9.275 15.5626C9.45833 16.5209 9.7 17.3334 10 18.0001H14C14.3 17.3334 14.5417 16.5209 14.725 15.5626C14.9083 14.6042 15 13.6251 15 12.6251C15 11.0917 14.7583 9.62924 14.275 8.23757C13.7917 6.84591 13.15 5.72507 12.35 4.87507C12.3 4.82507 12.2458 4.78757 12.1875 4.76257C12.1292 4.73757 12.0667 4.72507 12 4.72507C11.9333 4.72507 11.8708 4.73757 11.8125 4.76257C11.7542 4.78757 11.7 4.82507 11.65 4.87507ZM12 13.0001C11.45 13.0001 10.9792 12.8042 10.5875 12.4126C10.1958 12.0209 10 11.5501 10 11.0001C10 10.4501 10.1958 9.97924 10.5875 9.58757C10.9792 9.19591 11.45 9.00007 12 9.00007C12.55 9.00007 13.0208 9.19591 13.4125 9.58757C13.8042 9.97924 14 10.4501 14 11.0001C14 11.5501 13.8042 12.0209 13.4125 12.4126C13.0208 12.8042 12.55 13.0001 12 13.0001ZM16.025 18.2501L18 19.0501V16.0751L16.825 15.2751C16.7417 15.7751 16.6292 16.2751 16.4875 16.7751C16.3458 17.2751 16.1917 17.7667 16.025 18.2501ZM12.775 2.60007C14.175 3.80007 15.2292 5.27507 15.9375 7.02507C16.6458 8.77507 17 10.7667 17 13.0001L19.1 14.4001C19.3833 14.5834 19.6042 14.8251 19.7625 15.1251C19.9208 15.4251 20 15.7417 20 16.0751V20.5251C20 20.8751 19.8542 21.1501 19.5625 21.3501C19.2708 21.5501 18.9583 21.5834 18.625 21.4501L15.025 20.0001H8.975L5.375 21.4501C5.04167 21.5834 4.72917 21.5501 4.4375 21.3501C4.14583 21.1501 4 20.8751 4 20.5251V16.0751C4 15.7417 4.07917 15.4251 4.2375 15.1251C4.39583 14.8251 4.61667 14.5834 4.9 14.4001L7 13.0001C7 10.7667 7.35417 8.77507 8.0625 7.02507C8.77083 5.27507 9.825 3.80007 11.225 2.60007C11.3417 2.51674 11.4667 2.45007 11.6 2.40007C11.7333 2.35007 11.8667 2.32507 12 2.32507C12.1333 2.32507 12.2667 2.35007 12.4 2.40007C12.5333 2.45007 12.6583 2.51674 12.775 2.60007Z" fill="#090F1F"/>
</g>
</svg>
