<svg width="71" height="42" viewBox="0 0 71 42" fill="none" xmlns="http://www.w3.org/2000/svg">
<mask id="path-1-inside-1_57257_128" fill="white">
<path d="M0 32.0001C0 14.3269 14.3269 6.10352e-05 32 6.10352e-05H39C56.6731 6.10352e-05 71 14.327 71 32.0001V42.0001H0V32.0001Z"/>
</mask>
<path d="M0 32.0001C0 14.3269 14.3269 6.10352e-05 32 6.10352e-05H39C56.6731 6.10352e-05 71 14.327 71 32.0001V42.0001H0V32.0001Z" fill="#3A813F" fill-opacity="0.05"/>
<path d="M-1 32.0001C-1 13.7747 13.7746 -0.999939 32 -0.999939H39C57.2254 -0.999939 72 13.7747 72 32.0001H70C70 14.8792 56.1208 1.00006 39 1.00006H32C14.8792 1.00006 1 14.8792 1 32.0001H-1ZM71 42.0001H0H71ZM-1 42.0001V32.0001C-1 13.7747 13.7746 -0.999939 32 -0.999939V1.00006C14.8792 1.00006 1 14.8792 1 32.0001V42.0001H-1ZM39 -0.999939C57.2254 -0.999939 72 13.7747 72 32.0001V42.0001H70V32.0001C70 14.8792 56.1208 1.00006 39 1.00006V-0.999939Z" fill="#3A813F" mask="url(#path-1-inside-1_57257_128)"/>
<path d="M36.2497 19.6081H33.0017V18.1381H38.2377V19.5381L35.0177 27.0001H33.0857L36.2497 19.6081Z" fill="#3A813F"/>
</svg>
