<svg width="24" height="24" viewBox="0 0 24 24" fill="none" xmlns="http://www.w3.org/2000/svg">
<mask id="mask0_57257_389" style="mask-type:alpha" maskUnits="userSpaceOnUse" x="0" y="0" width="24" height="24">
<rect y="6.10352e-05" width="24" height="24" fill="#D9D9D9"/>
</mask>
<g mask="url(#mask0_57257_389)">
<path d="M12 11.9251L10.3 13.2251C10.2 13.3084 10.1 13.3126 10 13.2376C9.9 13.1626 9.86667 13.0667 9.9 12.9501L10.55 10.8501L8.8 9.45006C8.71667 9.36673 8.69167 9.27089 8.725 9.16256C8.75833 9.05423 8.83333 9.00006 8.95 9.00006H11.1L11.75 6.95006C11.7833 6.83339 11.8667 6.77506 12 6.77506C12.1333 6.77506 12.2167 6.83339 12.25 6.95006L12.9 9.00006H15.025C15.1417 9.00006 15.2208 9.05423 15.2625 9.16256C15.3042 9.27089 15.2833 9.36673 15.2 9.45006L13.425 10.8501L14.075 12.9501C14.1083 13.0667 14.075 13.1626 13.975 13.2376C13.875 13.3126 13.775 13.3084 13.675 13.2251L12 11.9251ZM12 21.0001L7.325 22.5501C6.99167 22.6667 6.6875 22.6251 6.4125 22.4251C6.1375 22.2251 6 21.9584 6 21.6251V15.2751C5.36667 14.5751 4.875 13.7751 4.525 12.8751C4.175 11.9751 4 11.0167 4 10.0001C4 7.76673 4.775 5.87506 6.325 4.32506C7.875 2.77506 9.76667 2.00006 12 2.00006C14.2333 2.00006 16.125 2.77506 17.675 4.32506C19.225 5.87506 20 7.76673 20 10.0001C20 11.0167 19.825 11.9751 19.475 12.8751C19.125 13.7751 18.6333 14.5751 18 15.2751V21.6251C18 21.9584 17.8625 22.2251 17.5875 22.4251C17.3125 22.6251 17.0083 22.6667 16.675 22.5501L12 21.0001ZM12 16.0001C13.6667 16.0001 15.0833 15.4167 16.25 14.2501C17.4167 13.0834 18 11.6667 18 10.0001C18 8.33339 17.4167 6.91673 16.25 5.75006C15.0833 4.58339 13.6667 4.00006 12 4.00006C10.3333 4.00006 8.91667 4.58339 7.75 5.75006C6.58333 6.91673 6 8.33339 6 10.0001C6 11.6667 6.58333 13.0834 7.75 14.2501C8.91667 15.4167 10.3333 16.0001 12 16.0001ZM8 20.0251L12 19.0001L16 20.0251V16.9251C15.4167 17.2584 14.7875 17.5209 14.1125 17.7126C13.4375 17.9042 12.7333 18.0001 12 18.0001C11.2667 18.0001 10.5625 17.9042 9.8875 17.7126C9.2125 17.5209 8.58333 17.2584 8 16.9251V20.0251Z" fill="#1C1B1F"/>
</g>
</svg>
