<svg width="24" height="24" viewBox="0 0 24 24" fill="none" xmlns="http://www.w3.org/2000/svg">
<mask id="mask0_57257_174" style="mask-type:alpha" maskUnits="userSpaceOnUse" x="0" y="0" width="24" height="24">
<rect y="3.05176e-05" width="24" height="24" fill="#D9D9D9"/>
</mask>
<g mask="url(#mask0_57257_174)">
<path d="M15 20C12.7667 20 10.875 19.225 9.325 17.675C7.775 16.125 7 14.2334 7 12C7 9.78336 7.775 7.89586 9.325 6.33753C10.875 4.7792 12.7667 4.00003 15 4.00003C17.2167 4.00003 19.1042 4.7792 20.6625 6.33753C22.2208 7.89586 23 9.78336 23 12C23 14.2334 22.2208 16.125 20.6625 17.675C19.1042 19.225 17.2167 20 15 20ZM15 18C16.6667 18 18.0833 17.4167 19.25 16.25C20.4167 15.0834 21 13.6667 21 12C21 10.3334 20.4167 8.9167 19.25 7.75003C18.0833 6.58336 16.6667 6.00003 15 6.00003C13.3333 6.00003 11.9167 6.58336 10.75 7.75003C9.58333 8.9167 9 10.3334 9 12C9 13.6667 9.58333 15.0834 10.75 16.25C11.9167 17.4167 13.3333 18 15 18ZM16 11.6V9.00003C16 8.7167 15.9042 8.4792 15.7125 8.28753C15.5208 8.09586 15.2833 8.00003 15 8.00003C14.7167 8.00003 14.4792 8.09586 14.2875 8.28753C14.0958 8.4792 14 8.7167 14 9.00003V12.025C14 12.1584 14.0292 12.2875 14.0875 12.4125C14.1458 12.5375 14.2167 12.6417 14.3 12.725L16.575 15C16.775 15.2 17.0125 15.3 17.2875 15.3C17.5625 15.3 17.8 15.2 18 15C18.2 14.8 18.3 14.5625 18.3 14.2875C18.3 14.0125 18.2 13.775 18 13.575L16 11.6ZM3 9.00003C2.71667 9.00003 2.47917 8.9042 2.2875 8.71253C2.09583 8.52086 2 8.28336 2 8.00003C2 7.7167 2.09583 7.4792 2.2875 7.28753C2.47917 7.09586 2.71667 7.00003 3 7.00003H5C5.28333 7.00003 5.52083 7.09586 5.7125 7.28753C5.90417 7.4792 6 7.7167 6 8.00003C6 8.28336 5.90417 8.52086 5.7125 8.71253C5.52083 8.9042 5.28333 9.00003 5 9.00003H3ZM2 13C1.71667 13 1.47917 12.9042 1.2875 12.7125C1.09583 12.5209 1 12.2834 1 12C1 11.7167 1.09583 11.4792 1.2875 11.2875C1.47917 11.0959 1.71667 11 2 11H5C5.28333 11 5.52083 11.0959 5.7125 11.2875C5.90417 11.4792 6 11.7167 6 12C6 12.2834 5.90417 12.5209 5.7125 12.7125C5.52083 12.9042 5.28333 13 5 13H2ZM3 17C2.71667 17 2.47917 16.9042 2.2875 16.7125C2.09583 16.5209 2 16.2834 2 16C2 15.7167 2.09583 15.4792 2.2875 15.2875C2.47917 15.0959 2.71667 15 3 15H5C5.28333 15 5.52083 15.0959 5.7125 15.2875C5.90417 15.4792 6 15.7167 6 16C6 16.2834 5.90417 16.5209 5.7125 16.7125C5.52083 16.9042 5.28333 17 5 17H3Z" fill="#090F1F"/>
</g>
</svg>
