<svg width="71" height="42" viewBox="0 0 71 42" fill="none" xmlns="http://www.w3.org/2000/svg">
<mask id="path-1-inside-1_57257_246" fill="white">
<path d="M0 32.0001C0 14.327 14.3269 0.00012207 32 0.00012207H39C56.6731 0.00012207 71 14.327 71 32.0001V42.0001H0V32.0001Z"/>
</mask>
<path d="M0 32.0001C0 14.327 14.3269 0.00012207 32 0.00012207H39C56.6731 0.00012207 71 14.327 71 32.0001V42.0001H0V32.0001Z" fill="#3A813F" fill-opacity="0.05"/>
<path d="M-1 32.0001C-1 13.7747 13.7746 -0.999878 32 -0.999878H39C57.2254 -0.999878 72 13.7747 72 32.0001H70C70 14.8793 56.1208 1.00012 39 1.00012H32C14.8792 1.00012 1 14.8793 1 32.0001H-1ZM71 42.0001H0H71ZM-1 42.0001V32.0001C-1 13.7747 13.7746 -0.999878 32 -0.999878V1.00012C14.8792 1.00012 1 14.8793 1 32.0001V42.0001H-1ZM39 -0.999878C57.2254 -0.999878 72 13.7747 72 32.0001V42.0001H70V32.0001C70 14.8793 56.1208 1.00012 39 1.00012V-0.999878Z" fill="#3A813F" mask="url(#path-1-inside-1_57257_246)"/>
<path d="M28.8549 27.0001V25.4461C29.0789 25.1941 29.3776 24.8535 29.7509 24.4241C30.3389 23.7708 30.7729 23.2761 31.0529 22.9401C31.6783 22.1935 32.0703 21.6848 32.2289 21.4141C32.3876 21.1341 32.4669 20.8261 32.4669 20.4901C32.4669 20.2101 32.3643 19.9768 32.1589 19.7901C31.9536 19.6035 31.6923 19.5101 31.3749 19.5101C30.8243 19.5101 30.2176 19.7341 29.5549 20.1821L28.7849 19.0621C29.7183 18.3248 30.6936 17.9561 31.7109 17.9561C32.5229 17.9561 33.1716 18.1755 33.6569 18.6141C34.1329 19.0435 34.3709 19.6361 34.3709 20.3921C34.3709 20.9521 34.1843 21.5401 33.8109 22.1561C33.4469 22.7628 32.7329 23.6681 31.6689 24.8721C31.4076 25.1708 31.2163 25.3901 31.0949 25.5301H34.2729V27.0001H28.8549ZM35.2644 23.8081C36.5244 21.8855 37.7657 19.9955 38.9884 18.1381H40.7944V23.8081H42.2504V25.2781H40.7944V27.0001H38.9744V25.2781H35.2644V23.8081ZM36.8464 23.8081H38.9744V20.4901L36.8464 23.8081Z" fill="#3A813F"/>
</svg>
